<svg width="25" height="24" viewBox="0 0 25 24" fill="none" xmlns="http://www.w3.org/2000/svg">
<path d="M18.5 4H6.5C5.39543 4 4.5 4.89543 4.5 6V18C4.5 18.1121 4.50922 18.222 4.52693 18.329C4.68385 19.277 5.5075 20 6.5 20H18.5C19.6046 20 20.5 19.1046 20.5 18V14.1901V6C20.5 4.89543 19.6046 4 18.5 4Z" stroke="#3F3F3F" stroke-width="1.5" stroke-linecap="round" stroke-linejoin="round"/>
<path d="M11.5 9C11.5 10.1046 10.6046 11 9.5 11C8.39543 11 7.5 10.1046 7.5 9C7.5 7.89543 8.39543 7 9.5 7C10.6046 7 11.5 7.89543 11.5 9Z" stroke="#3F3F3F" stroke-width="1.5" stroke-linecap="round" stroke-linejoin="round"/>
<path d="M4.52692 18.3289L8.34762 14.5082C9.02765 13.9132 10.0222 13.8481 10.774 14.3493L11.2832 14.6887C12.0078 15.1718 12.9619 15.1304 13.642 14.5864L16.2901 12.4678C16.9651 11.9278 17.9053 11.8855 18.6228 12.3483C18.7023 12.3996 18.7731 12.4631 18.84 12.5301L20.5 14.19" stroke="#3F3F3F" stroke-width="1.5" stroke-linecap="round" stroke-linejoin="round"/>
</svg>
