<svg width="21" height="21" viewBox="0 0 21 21" fill="none" xmlns="http://www.w3.org/2000/svg">
<path d="M7.78955 14.2249V15.0582C7.78955 15.3865 7.85422 15.7116 7.97985 16.0149C8.10549 16.3182 8.28963 16.5938 8.52178 16.8259C8.75397 17.0581 9.02955 17.2423 9.3328 17.3679C9.63613 17.4935 9.96122 17.5582 10.2896 17.5582C10.6179 17.5582 10.943 17.4935 11.2463 17.3679C11.5496 17.2423 11.8251 17.0581 12.0573 16.8259C12.2895 16.5938 12.4736 16.3182 12.5992 16.0149C12.7249 15.7116 12.7896 15.3865 12.7896 15.0582V14.2249" stroke="#878787" stroke-width="1.5" stroke-linecap="round" stroke-linejoin="round"/>
<path d="M16.9564 14.2248C16.9564 14.2248 15.2897 10.0581 15.2897 7.55811C15.2897 4.83477 13.013 2.55811 10.2897 2.55811C7.56638 2.55811 5.28971 4.83477 5.28971 7.55811C5.28971 10.8914 3.62305 14.2248 3.62305 14.2248H16.9564Z" stroke="#878787" stroke-width="1.5" stroke-linecap="round" stroke-linejoin="round"/>
</svg>
