<svg width="21" height="21" viewBox="0 0 21 21" fill="none" xmlns="http://www.w3.org/2000/svg">
<path d="M7.78955 14.2246V15.0579C7.78955 15.3863 7.85422 15.7114 7.97985 16.0147C8.10549 16.3179 8.28963 16.5935 8.52178 16.8257C8.75397 17.0579 9.02955 17.242 9.3328 17.3676C9.63613 17.4933 9.96122 17.5579 10.2896 17.5579C10.6179 17.5579 10.943 17.4933 11.2463 17.3676C11.5496 17.242 11.8251 17.0579 12.0573 16.8257C12.2895 16.5935 12.4736 16.3179 12.5992 16.0147C12.7249 15.7114 12.7896 15.3863 12.7896 15.0579V14.2246" fill="#51B7F6"/>
<path d="M7.78955 14.2246V15.0579C7.78955 15.3863 7.85422 15.7114 7.97985 16.0147C8.10549 16.3179 8.28963 16.5935 8.52178 16.8257C8.75397 17.0579 9.02955 17.242 9.3328 17.3676C9.63613 17.4933 9.96122 17.5579 10.2896 17.5579C10.6179 17.5579 10.943 17.4933 11.2463 17.3676C11.5496 17.242 11.8251 17.0579 12.0573 16.8257C12.2895 16.5935 12.4736 16.3179 12.5992 16.0147C12.7249 15.7114 12.7896 15.3863 12.7896 15.0579V14.2246" stroke="#51B7F6" stroke-width="1.5" stroke-linecap="round" stroke-linejoin="round"/>
<path d="M16.9564 14.2248C16.9564 14.2248 15.2897 10.0581 15.2897 7.55811C15.2897 4.83477 13.013 2.55811 10.2897 2.55811C7.56638 2.55811 5.28971 4.83477 5.28971 7.55811C5.28971 10.8914 3.62305 14.2248 3.62305 14.2248H16.9564Z" fill="#51B7F6" stroke="#51B7F6" stroke-width="1.5" stroke-linecap="round" stroke-linejoin="round"/>
</svg>
