<svg width="19" height="18" viewBox="0 0 19 18" fill="none" xmlns="http://www.w3.org/2000/svg">
<path fill-rule="evenodd" clip-rule="evenodd" d="M5 2.25C4.70163 2.25 4.41548 2.36853 4.2045 2.5795C3.99353 2.79048 3.875 3.07663 3.875 3.375V14.625C3.875 14.9234 3.99353 15.2095 4.2045 15.4205C4.41548 15.6315 4.70163 15.75 5 15.75H11.1875C12.0429 15.7501 12.875 15.4716 13.558 14.9567C14.241 14.4417 14.7378 13.7184 14.9732 12.8961C15.2086 12.0737 15.1698 11.1971 14.8627 10.3988C14.5556 9.60042 13.9968 8.92381 13.271 8.47125C13.6904 7.88225 13.9394 7.18916 13.9909 6.46796C14.0424 5.74676 13.8944 5.0253 13.563 4.38269C13.2315 3.74008 12.7296 3.20113 12.1121 2.82494C11.4947 2.44874 10.7855 2.24983 10.0625 2.25H5ZM10.0625 7.875C10.2841 7.875 10.5035 7.83135 10.7083 7.74655C10.913 7.66174 11.099 7.53744 11.2557 7.38074C11.4124 7.22404 11.5367 7.03802 11.6215 6.83328C11.7064 6.62854 11.75 6.40911 11.75 6.1875C11.75 5.96589 11.7064 5.74646 11.6215 5.54172C11.5367 5.33698 11.4124 5.15096 11.2557 4.99426C11.099 4.83756 10.913 4.71326 10.7083 4.62845C10.5035 4.54365 10.2841 4.5 10.0625 4.5H6.125V7.875H10.0625ZM6.125 10.125V13.5H11.1875C11.6351 13.5 12.0643 13.3222 12.3807 13.0057C12.6972 12.6893 12.875 12.2601 12.875 11.8125C12.875 11.3649 12.6972 10.9357 12.3807 10.6193C12.0643 10.3028 11.6351 10.125 11.1875 10.125H6.125Z" fill="#838383"/>
</svg>
