<svg width="26" height="26" viewBox="0 0 26 26" fill="none" xmlns="http://www.w3.org/2000/svg">
<circle cx="13" cy="13" r="13" fill="#C4C4C4"/>
<path d="M21.4999 17.628V10.1994C21.4999 9.17372 20.6685 8.34225 19.6428 8.34225H17.3214C16.8085 8.34225 16.3928 7.92651 16.3928 7.41368C16.3928 6.90085 15.9771 6.48511 15.4642 6.48511H10.8214C10.3085 6.48511 9.89279 6.90085 9.89279 7.41368C9.89279 7.92651 9.47705 8.34225 8.96422 8.34225H6.64279C5.61712 8.34225 4.78564 9.17372 4.78564 10.1994V17.628C4.78564 18.6537 5.61712 19.4851 6.64279 19.4851H19.6428C20.6685 19.4851 21.4999 18.6537 21.4999 17.628Z" fill="white" stroke="#C4C4C4" stroke-width="1.5"/>
<path d="M15.2321 13.9138C15.2321 15.0676 14.2966 16.0031 13.1428 16.0031V17.3959C15.066 17.3959 16.6249 15.8369 16.6249 13.9138H15.2321ZM13.1428 16.0031C11.9889 16.0031 11.0535 15.0676 11.0535 13.9138H9.66064C9.66064 15.8369 11.2197 17.3959 13.1428 17.3959V16.0031ZM11.0535 13.9138C11.0535 12.7599 11.9889 11.8245 13.1428 11.8245V10.4316C11.2197 10.4316 9.66064 11.9906 9.66064 13.9138H11.0535ZM13.1428 11.8245C14.2966 11.8245 15.2321 12.7599 15.2321 13.9138H16.6249C16.6249 11.9906 15.066 10.4316 13.1428 10.4316V11.8245Z" fill="#C4C4C4"/>
</svg>
