<svg width="30" height="30" viewBox="0 0 30 30" fill="none" xmlns="http://www.w3.org/2000/svg">
<path fill-rule="evenodd" clip-rule="evenodd" d="M4.37491 10C4.37516 8.81493 4.68175 7.65001 5.26493 6.61832C5.84812 5.58663 6.68809 4.72322 7.70333 4.11186C8.71858 3.50051 9.87462 3.16197 11.0593 3.12911C12.2439 3.09625 13.417 3.37017 14.4645 3.92431C15.5121 4.47844 16.3986 5.29396 17.0381 6.29173C17.6776 7.2895 18.0483 8.43563 18.1143 9.6189C18.1802 10.8022 17.9392 11.9824 17.4145 13.045C16.8899 14.1077 16.0994 15.0167 15.1199 15.6838C17.2293 16.4574 19.0589 17.8447 20.3732 19.6669C21.6875 21.4892 22.4265 23.663 22.4949 25.9088C22.4986 26.0319 22.478 26.1545 22.4343 26.2697C22.3906 26.3848 22.3247 26.4903 22.2402 26.5799C22.0697 26.761 21.8342 26.8669 21.5855 26.8744C21.3369 26.8819 21.0955 26.7902 20.9144 26.6197C20.7333 26.4492 20.6274 26.2137 20.6199 25.965C20.5455 23.5294 19.5256 21.2184 17.7764 19.5218C16.0272 17.8252 13.6861 16.8764 11.2493 16.8764C8.81247 16.8764 6.4714 17.8252 4.72219 19.5218C2.97299 21.2184 1.9531 23.5294 1.87866 25.965C1.86614 26.2098 1.75826 26.44 1.57811 26.6062C1.39796 26.7724 1.15988 26.8615 0.914876 26.8543C0.66987 26.8471 0.437425 26.7442 0.267336 26.5677C0.0972479 26.3912 0.00304543 26.1551 0.00490997 25.91C0.0730992 23.6641 0.811919 21.4899 2.12627 19.6674C3.44062 17.8449 5.27034 16.4575 7.37991 15.6838C6.45329 15.0535 5.695 14.206 5.17121 13.2153C4.64741 12.2246 4.37403 11.1207 4.37491 10V10ZM11.2499 5.00003C9.92383 5.00003 8.65206 5.52682 7.71438 6.4645C6.77669 7.40218 6.24991 8.67395 6.24991 10C6.24991 11.3261 6.77669 12.5979 7.71438 13.5356C8.65206 14.4732 9.92383 15 11.2499 15C12.576 15 13.8478 14.4732 14.7854 13.5356C15.7231 12.5979 16.2499 11.3261 16.2499 10C16.2499 8.67395 15.7231 7.40218 14.7854 6.4645C13.8478 5.52682 12.576 5.00003 11.2499 5.00003Z" fill="black"/>
<path d="M21.6125 9.9998C21.4275 9.9998 21.2475 10.0123 21.07 10.0373C20.9461 10.0595 20.819 10.0565 20.6962 10.0285C20.5735 10.0005 20.4576 9.94804 20.3556 9.87429C20.2536 9.80054 20.1674 9.70699 20.1023 9.59923C20.0372 9.49147 19.9945 9.3717 19.9767 9.24706C19.9589 9.12243 19.9664 8.99549 19.9987 8.87381C20.031 8.75213 20.0875 8.63821 20.1648 8.53884C20.2421 8.43947 20.3387 8.35668 20.4486 8.29543C20.5586 8.23417 20.6798 8.1957 20.805 8.1823C22.0482 8.00256 23.3159 8.2413 24.4086 8.86096C25.5013 9.48062 26.3569 10.446 26.8408 11.6052C27.3247 12.7644 27.4094 14.0516 27.0816 15.2642C26.7538 16.4768 26.0321 17.546 25.03 18.3036C26.503 18.9631 27.7537 20.0348 28.6311 21.3893C29.5086 22.7439 29.9753 24.3234 29.975 25.9373C29.975 26.1859 29.8763 26.4244 29.7004 26.6002C29.5246 26.776 29.2862 26.8748 29.0375 26.8748C28.7889 26.8748 28.5504 26.776 28.3746 26.6002C28.1988 26.4244 28.1 26.1859 28.1 25.9373C28.0999 24.5425 27.6505 23.1848 26.8183 22.0654C25.9862 20.946 24.8156 20.1244 23.48 19.7223L22.8125 19.5223V17.4273L23.325 17.1661C24.0847 16.7812 24.6926 16.1516 25.0504 15.3789C25.4083 14.6061 25.4952 13.7353 25.2973 12.907C25.0994 12.0787 24.6281 11.3413 23.9595 10.8138C23.2909 10.2864 22.4641 9.99958 21.6125 9.9998Z" fill="black"/>
</svg>
