<svg width="28" height="26" viewBox="0 0 28 26" fill="none" xmlns="http://www.w3.org/2000/svg">
<path d="M1 13L3.88889 10.3333M3.88889 10.3333L14 1L24.1111 10.3333M3.88889 10.3333V23.6667C3.88889 24.4031 4.5356 25 5.33333 25H9.66667M24.1111 10.3333L27 13M24.1111 10.3333V23.6667C24.1111 24.4031 23.4644 25 22.6667 25H18.3333M9.66667 25C10.4644 25 11.1111 25 11.1111 25V18.3333C11.1111 17.5969 11.7578 17 12.5556 17H15.4444C16.2422 17 16.8889 17.5969 16.8889 18.3333V25C16.8889 25 17.5356 25 18.3333 25M9.66667 25H18.3333" stroke="black" stroke-width="2" stroke-linecap="round" stroke-linejoin="round"/>
</svg>
