<svg width="30" height="28" viewBox="0 0 30 28" fill="none" xmlns="http://www.w3.org/2000/svg">
<path d="M1 14L4.11111 11.1111M4.11111 11.1111L15 1L25.8889 11.1111M4.11111 11.1111V25.5556C4.11111 26.3533 4.80756 27 5.66667 27H10.3333M25.8889 11.1111L29 14M25.8889 11.1111V25.5556C25.8889 26.3533 25.1925 27 24.3333 27H19.6667M10.3333 27C11.1924 27 11.8889 27 11.8889 27V19.7778C11.8889 18.98 12.5853 18.3333 13.4444 18.3333H16.5556C17.4147 18.3333 18.1111 18.98 18.1111 19.7778V27C18.1111 27 18.8075 27 19.6667 27M10.3333 27H19.6667" stroke="black" stroke-width="2" stroke-linecap="round" stroke-linejoin="round"/>
</svg>
