<svg width="48" height="48" viewBox="0 0 48 48" fill="none" xmlns="http://www.w3.org/2000/svg">
<g clip-path="url(#clip0_366_2758)">
<rect y="48" width="48" height="48" rx="24" transform="rotate(-90 0 48)" fill="#0097F5"/>
<path d="M4.8 24C4.8 29.0922 6.82285 33.9758 10.4236 37.5764C14.0242 41.1771 18.9078 43.2 24 43.2C29.0922 43.2 33.9758 41.1771 37.5765 37.5764C41.1772 33.9758 43.2 29.0922 43.2 24C43.2 18.9078 41.1772 14.0242 37.5765 10.4235C33.9758 6.82285 29.0922 4.8 24 4.8C18.9078 4.8 14.0242 6.82285 10.4236 10.4235C6.82285 14.0242 4.8 18.9078 4.8 24ZM24 48C10.7448 48 0 37.2552 0 24C0 10.7448 10.7448 0 24 0C37.2552 0 48 10.7448 48 24C48 37.2552 37.2552 48 24 48ZM9.6 24C9.6 23.3635 9.85286 22.753 10.3029 22.3029C10.753 21.8529 11.3635 21.6 12 21.6L30.2064 21.6L24.7032 16.0968C24.266 15.6442 24.0241 15.0379 24.0296 14.4086C24.0351 13.7794 24.2875 13.1774 24.7324 12.7324C25.1774 12.2875 25.7794 12.035 26.4086 12.0296C27.0379 12.0241 27.6442 12.266 28.0968 12.7032L37.6968 22.3032C38.1467 22.7533 38.3995 23.3636 38.3995 24C38.3995 24.6364 38.1467 25.2467 37.6968 25.6968L28.0968 35.2968C27.8754 35.526 27.6106 35.7089 27.3178 35.8346C27.025 35.9604 26.71 36.0266 26.3914 36.0294C26.0727 36.0322 25.7567 35.9714 25.4617 35.8508C25.1668 35.7301 24.8988 35.5519 24.6735 35.3265C24.4481 35.1012 24.2699 34.8332 24.1492 34.5383C24.0286 34.2433 23.9678 33.9273 23.9706 33.6086C23.9734 33.29 24.0396 32.975 24.1654 32.6822C24.2911 32.3894 24.474 32.1246 24.7032 31.9032L30.2064 26.4L12 26.4C11.3635 26.4 10.753 26.1471 10.3029 25.6971C9.85286 25.247 9.6 24.6365 9.6 24Z" fill="white"/>
</g>
<defs>
<clipPath id="clip0_366_2758">
<rect y="48" width="48" height="48" rx="24" transform="rotate(-90 0 48)" fill="white"/>
</clipPath>
</defs>
</svg>
