<svg width="34" height="34" viewBox="0 0 34 34" fill="none" xmlns="http://www.w3.org/2000/svg">
<path d="M17 32.75C25.6986 32.75 32.75 25.6986 32.75 17C32.75 8.30152 25.6986 1.25 17 1.25C8.30152 1.25 1.25 8.30152 1.25 17C1.25 25.6986 8.30152 32.75 17 32.75Z" stroke="black" stroke-width="2" stroke-linecap="round" stroke-linejoin="round"/>
<path d="M27.5 28.729C27.5 23.4235 21.375 22.25 17 22.25C12.625 22.25 6.5 23.4235 6.5 28.729" stroke="black" stroke-width="2" stroke-linecap="round" stroke-linejoin="round"/>
<path d="M17 17C19.8996 17 22.25 14.6496 22.25 11.75C22.25 8.85051 19.8996 6.5 17 6.5C14.1004 6.5 11.75 8.85051 11.75 11.75C11.75 14.6496 14.1004 17 17 17Z" stroke="black" stroke-width="2" stroke-linecap="round" stroke-linejoin="round"/>
</svg>
