<svg width="48" height="48" viewBox="0 0 48 48" fill="none" xmlns="http://www.w3.org/2000/svg">
<g clip-path="url(#clip0_366_2446)">
<rect width="48" height="48" rx="24" fill="#51B7F6"/>
<path d="M24 4.8C18.9078 4.8 14.0242 6.82285 10.4236 10.4236C6.82285 14.0242 4.8 18.9078 4.8 24C4.8 29.0922 6.82285 33.9758 10.4236 37.5765C14.0242 41.1772 18.9078 43.2 24 43.2C29.0922 43.2 33.9758 41.1772 37.5765 37.5765C41.1772 33.9758 43.2 29.0922 43.2 24C43.2 18.9078 41.1772 14.0242 37.5765 10.4236C33.9758 6.82285 29.0922 4.8 24 4.8ZM0 24C0 10.7448 10.7448 0 24 0C37.2552 0 48 10.7448 48 24C48 37.2552 37.2552 48 24 48C10.7448 48 0 37.2552 0 24ZM24 9.6C24.6365 9.6 25.247 9.85286 25.6971 10.3029C26.1471 10.753 26.4 11.3635 26.4 12V30.2064L31.9032 24.7032C32.3558 24.266 32.9621 24.0241 33.5914 24.0296C34.2206 24.0351 34.8226 24.2875 35.2676 24.7324C35.7125 25.1774 35.965 25.7794 35.9704 26.4086C35.9759 27.0379 35.734 27.6442 35.2968 28.0968L25.6968 37.6968C25.2467 38.1467 24.6364 38.3995 24 38.3995C23.3636 38.3995 22.7533 38.1467 22.3032 37.6968L12.7032 28.0968C12.474 27.8754 12.2911 27.6106 12.1654 27.3178C12.0396 27.025 11.9734 26.71 11.9706 26.3914C11.9678 26.0727 12.0286 25.7567 12.1492 25.4617C12.2699 25.1668 12.4481 24.8988 12.6735 24.6735C12.8988 24.4481 13.1668 24.2699 13.4617 24.1492C13.7567 24.0286 14.0727 23.9678 14.3914 23.9706C14.71 23.9734 15.025 24.0396 15.3178 24.1654C15.6106 24.2911 15.8754 24.474 16.0968 24.7032L21.6 30.2064V12C21.6 11.3635 21.8529 10.753 22.3029 10.3029C22.753 9.85286 23.3635 9.6 24 9.6Z" fill="#F0F3F5"/>
</g>
<defs>
<clipPath id="clip0_366_2446">
<rect width="48" height="48" rx="24" fill="white"/>
</clipPath>
</defs>
</svg>
