<svg width="22" height="22" viewBox="0 0 22 22" fill="none" xmlns="http://www.w3.org/2000/svg">
<g clip-path="url(#clip0_366_1556)">
<path d="M10.1279 2.68321C10.4024 1.83867 11.5971 1.83867 11.8716 2.68321L13.2636 6.96749C13.3863 7.34517 13.7383 7.60088 14.1354 7.60088H18.6402C19.5281 7.60088 19.8974 8.7372 19.179 9.25912L15.5345 11.907C15.2132 12.1404 15.0788 12.5542 15.2016 12.9318L16.5936 17.2162C16.868 18.0607 15.9014 18.7629 15.183 18.241L11.5386 15.5932C11.2173 15.3597 10.7822 15.3597 10.4609 15.5932L6.81652 18.241C6.09812 18.7629 5.13151 18.0607 5.40592 17.2162L6.79797 12.9318C6.92068 12.5542 6.78624 12.1404 6.46497 11.907L2.82054 9.25912C2.10213 8.7372 2.47135 7.60088 3.35934 7.60088H7.86411C8.26122 7.60088 8.61319 7.34517 8.7359 6.96749L10.1279 2.68321Z" fill="#0097F5" stroke="#0097F5" stroke-width="1.5" stroke-linecap="round" stroke-linejoin="round"/>
</g>
<defs>
<clipPath id="clip0_366_1556">
<rect width="22" height="22" fill="white"/>
</clipPath>
</defs>
</svg>
