<svg width="22" height="22" viewBox="0 0 22 22" fill="none" xmlns="http://www.w3.org/2000/svg">
<g clip-path="url(#clip0_366_1613)">
<path d="M10.1282 2.68321C10.4026 1.83867 11.5974 1.83867 11.8718 2.68321L13.2639 6.96749C13.3865 7.34517 13.7385 7.60088 14.1356 7.60088H18.6404C19.5284 7.60088 19.8976 8.7372 19.1792 9.25912L15.5348 11.907C15.2135 12.1404 15.0791 12.5542 15.2018 12.9318L16.5939 17.2162C16.8682 18.0607 15.9016 18.7629 15.1832 18.241L11.5388 15.5932C11.2175 15.3597 10.7825 15.3597 10.4612 15.5932L6.81677 18.241C6.09836 18.7629 5.13176 18.0607 5.40616 17.2162L6.79821 12.9318C6.92093 12.5542 6.78649 12.1404 6.46521 11.907L2.82079 9.25912C2.10238 8.7372 2.47159 7.60088 3.35958 7.60088H7.86435C8.26147 7.60088 8.61343 7.34517 8.73615 6.96749L10.1282 2.68321Z" fill="#51B7F6" stroke="#51B7F6" stroke-width="1.5" stroke-linecap="round" stroke-linejoin="round"/>
</g>
<defs>
<clipPath id="clip0_366_1613">
<rect width="22" height="22" fill="white"/>
</clipPath>
</defs>
</svg>
