<svg width="20" height="20" viewBox="0 0 20 20" fill="none" xmlns="http://www.w3.org/2000/svg">
<g clip-path="url(#clip0_500_679)">
<path d="M9.20742 2.43934C9.45692 1.67159 10.5431 1.67159 10.7926 2.43934L12.0581 6.33414C12.1696 6.67749 12.4896 6.90996 12.8506 6.90996H16.9458C17.7531 6.90996 18.0888 7.94298 17.4357 8.41745L14.1225 10.8246C13.8304 11.0368 13.7083 11.413 13.8198 11.7563L15.0853 15.6511C15.3348 16.4189 14.456 17.0573 13.8029 16.5828L10.4898 14.1757C10.1978 13.9635 9.80225 13.9635 9.51017 14.1757L6.19706 16.5828C5.54397 17.0573 4.66523 16.4189 4.91469 15.6511L6.18019 11.7563C6.29175 11.413 6.16953 11.0368 5.87747 10.8246L2.56435 8.41745C1.91125 7.94298 2.2469 6.90996 3.05417 6.90996H7.14941C7.51043 6.90996 7.83039 6.67749 7.94195 6.33414L9.20742 2.43934Z" stroke="#878787" stroke-width="1.5" stroke-linecap="round" stroke-linejoin="round"/>
</g>
<defs>
<clipPath id="clip0_500_679">
<rect width="20" height="20" fill="white"/>
</clipPath>
</defs>
</svg>
